<svg data-mode="fill" fill='white' xmlns="http://www.w3.org/2000/svg" width="32" height="32" viewBox="0 0 32 32"><path d="M29.152 23.872c.16-.48.16-.96.16-1.472l.16-2.848.128-3.648.16-3.008.16-3.712.064-2.24.16-2.976c0-.256-.032-.544.032-.832v-.128c0-.032-.032 0-.064 0-.128.032-.288.032-.416.032l-3.488.256-3.424.288-8.832.672-1.92.128c-.064 0-.096.032-.096.128l-.128 2.912-.096 2.72-.128 3.424-.128 2.688-.128 3.424-.064 1.856c0 .096-.032.128-.128.064-.704-.352-1.472-.512-2.272-.48-1.472.064-2.816.48-3.872 1.568-.512.512-.864 1.056-.992 1.76 0 .064 0 .128-.032.192v.64c.032.192.064.416.128.608.224.736.704 1.28 1.312 1.728.768.544 1.632.832 2.592.864 0 0 .032 0 .064.032h.448c.032-.032.064-.032.096-.032.288 0 .576-.064.864-.128 1.152-.224 2.144-.768 2.912-1.664.448-.512.736-1.12.832-1.792.064-.512.064-1.024.064-1.536l.128-2.464.224-5.76.256-5.792c0-.096.032-.128.128-.16l1.344-.128 1.632-.16 2.016-.192 1.664-.192 3.648-.352 1.952-.192L28 7.776c.128 0 .16.032.16.128l-.128 1.888-.096 2.176-.256 4.352-.16 2.784-.032.928c-.064 0-.096-.032-.128-.064-.704-.32-1.408-.512-2.176-.544-.48 0-.928.032-1.408.128-1.216.256-2.24.8-2.976 1.792-.832 1.056-.992 2.208-.384 3.392.352.768.992 1.216 1.728 1.568.896.416 1.824.544 2.784.448 1.12-.096 2.112-.48 2.976-1.216.544-.448.992-.992 1.248-1.664zm-25.664-5.44c.352-.032.544-.352.48-.736-.064-.416-.352-.544-.768-.512a4.54 4.54 0 0 0-1.28.384c-.96.448-1.664 1.184-1.888 2.144-.032.192-.064.352 0 .512.288.672 1.056.576 1.248.032.352-1.088 1.056-1.696 2.208-1.824zm28 6.752c-.48-.064-.672.224-.768.672-.192.896-.768 1.472-1.632 1.76-.864.256-1.152.992-.32 1.344.16.064.352.064.48 0l.672-.288c1.088-.512 1.824-1.344 2.048-2.592.096-.416 0-.8-.48-.896zm-23.616-5.76c-.096-.512-.512-.576-.96-.48-.352.032-.672.096-1.024.192-2.208.64-3.616 2.08-4.256 4.256-.16.544.096.896.48.896.48 0 .672-.224.736-.544a5.03 5.03 0 0 1 .928-1.792c.864-1.056 1.984-1.6 3.328-1.76.448-.064.864-.224.768-.768z"></path></svg>