<svg data-mode="fill" fill='white' xmlns="http://www.w3.org/2000/svg" width="32" height="32" viewBox="0 0 32 32"><path d="M16 16.896c.576 0 .864-.32.928-.896-.032-.544-.352-.896-.896-.896-.576.032-.896.352-.896.928 0 .544.352.832.864.864zM16 0A16.01 16.01 0 0 0 0 16a16.01 16.01 0 0 0 16 16 16.01 16.01 0 0 0 16-16A16.01 16.01 0 0 0 16 0zM8.544 11.488c.704-1.408 1.792-2.464 3.264-3.136.192-.096.448-.096.608.128.16.288.064.544-.192.672-1.248.768-2.176 1.856-3.072 2.976-.128.16-.288.256-.48.192-.192-.096-.192-.288-.192-.512 0-.064 0-.192.064-.32zm-2.88-.576c-.128.224-.288.416-.416.608s-.288.352-.512.256-.224-.32-.224-.512c-.032-.32.096-.608.224-.864a13.43 13.43 0 0 1 5.728-5.6c0-.032.032-.032.064-.032.416-.096.928-.544 1.216 0 .32.608-.384.736-.736.896-2.304 1.248-4.096 2.976-5.344 5.248zm10.4.576c2.528 0 4.512 2.016 4.48 4.544 0 2.528-1.984 4.512-4.544 4.48-2.56 0-4.512-2.016-4.48-4.544 0-2.528 2.016-4.512 4.544-4.48zm3.904 11.584l.736-.64c.864-.64 1.504-1.44 2.176-2.24.16-.224.384-.576.704-.32.288.192.192.544.064.832-.384.832-.992 1.44-1.664 2.048-.48.416-.992.864-1.6.928-.256 0-.448 0-.544-.192-.064-.16.032-.288.128-.416zm.512 3.968c.224-.192.48-.384.736-.544 2.176-1.216 3.872-2.88 5.12-5.056a8.6 8.6 0 0 1 .448-.704c.128-.16.288-.288.512-.192.224.064.224.288.256.448-.032.384-.16.704-.32.992-1.248 2.272-3.008 4.032-5.28 5.312-.352.224-.768.384-1.216.384-.16 0-.352-.032-.416-.256-.064-.16.032-.288.16-.384z"></path></svg>